<?xml version="1.0" encoding="UTF-8"?>
<svg width="65px" height="82px" viewBox="0 0 65 82" version="1.1" xmlns="http://www.w3.org/2000/svg" xmlns:xlink="http://www.w3.org/1999/xlink">
    <!-- Generator: Sketch 53 (72520) - https://sketchapp.com -->
    <title>Group Copy 2</title>
    <desc>Created with Sketch.</desc>
    <g id="Page-1" stroke="none" stroke-width="1" fill="none" fill-rule="evenodd">
        <g id="Logo-PayMSP-Copy" transform="translate(-130.000000, -132.000000)">
            <g id="Group-2" transform="translate(130.000000, 132.000000)">
                <g id="Group-Copy-2">
                    <polygon id="Rectangle" fill="#66BB6A" points="0 32 15.212766 32 15.212766 82 0 82"></polygon>
                    <path d="M0,32 C0,14.326888 14.5507456,0 32.5,0 C50.4492544,0 65,14.326888 65,32 L49.787234,32 C49.787234,22.5994085 42.0474757,14.9787234 32.5,14.9787234 C22.9525243,14.9787234 15.212766,22.5994085 15.212766,32 L3.55271368e-15,32 Z" id="Combined-Shape-Copy-5" fill="#EC407A"></path>
                    <path d="M32.5,49.3611111 C42.0474757,49.3611111 49.787234,41.5882769 49.787234,32 L65,32 C65,50.0259606 50.4492544,64.6388889 32.5,64.6388889 C22.9525243,64.6388889 15.212766,72.4117231 15.212766,82 L-3.55271368e-15,82 C-3.55271368e-15,63.9740394 14.5507456,49.3611111 32.5,49.3611111 Z" id="Combined-Shape" fill="#1A73E8"></path>
                </g>
            </g>
        </g>
    </g>
</svg>